<?xml version="1.0" standalone="no"?>
<!DOCTYPE svg PUBLIC "-//W3C//DTD SVG 20010904//EN"
 "http://www.w3.org/TR/2001/REC-SVG-20010904/DTD/svg10.dtd">
<svg version="1.0" xmlns="http://www.w3.org/2000/svg"
 width="512.000000pt" height="512.000000pt" viewBox="0 0 512.000000 512.000000"
 preserveAspectRatio="xMidYMid meet">
<metadata>
Created by potrace 1.11, written by Peter Selinger 2001-2013
</metadata>
<g transform="translate(0.000000,512.000000) scale(0.100000,-0.100000)"
fill="#000000" stroke="none">
<path d="M219 5026 c-52 -18 -91 -60 -104 -113 -16 -62 -8 -179 19 -288 14
-56 21 -78 38 -129 11 -32 21 -63 22 -70 2 -6 15 -38 30 -71 16 -33 29 -66 29
-72 0 -7 4 -13 9 -13 4 0 8 -9 8 -20 0 -11 3 -20 8 -20 4 0 18 -21 32 -47 13
-27 27 -50 30 -53 4 -3 9 -12 13 -20 9 -19 28 -48 49 -74 9 -12 32 -41 51 -65
l35 -44 -64 -65 c-35 -36 -66 -73 -69 -84 -4 -10 -10 -18 -14 -18 -9 0 -71
-97 -71 -111 0 -5 -5 -9 -11 -9 -5 0 -8 -4 -4 -9 3 -5 1 -12 -5 -16 -20 -12
-113 -229 -103 -239 4 -3 2 -6 -4 -6 -9 0 -17 -24 -27 -80 -1 -3 -5 -10 -9
-16 -3 -7 -9 -29 -13 -50 -3 -22 -9 -46 -14 -54 -4 -8 -10 -31 -14 -50 -3 -19
-8 -46 -11 -60 -3 -13 -7 -42 -10 -65 -3 -22 -8 -47 -10 -55 -2 -8 -7 -46 -11
-85 -3 -38 -8 -73 -10 -76 -2 -4 -7 -86 -10 -182 l-7 -175 44 5 c24 2 52 5 62
6 9 1 17 4 17 7 0 4 6 7 13 7 11 1 24 3 95 19 15 4 34 8 42 9 8 1 22 5 31 9 8
4 29 8 45 9 16 1 35 8 42 15 7 6 22 12 31 12 10 0 36 6 57 13 22 8 52 17 67
21 26 6 28 5 27 -21 -1 -15 -1 -32 0 -38 1 -5 1 -44 0 -85 -1 -41 -2 -92 -3
-112 0 -21 2 -40 4 -43 3 -2 2 -28 -1 -57 -5 -46 -13 -60 -53 -103 -66 -69
-68 -72 -120 -146 -26 -37 -47 -71 -47 -77 0 -6 -4 -12 -8 -14 -8 -3 -95 -173
-93 -183 1 -3 -6 -19 -14 -35 -9 -17 -13 -30 -10 -30 3 0 -1 -13 -10 -30 -8
-16 -15 -32 -15 -35 0 -3 0 -6 -1 -7 0 -2 -2 -11 -5 -20 -4 -19 -6 -27 -18
-69 -4 -14 -9 -41 -11 -60 -2 -19 -4 -34 -5 -34 -1 0 -4 -16 -6 -35 -7 -54
-10 -320 -4 -320 3 0 5 -17 4 -38 0 -20 2 -41 5 -47 6 -11 10 -28 13 -62 1
-13 5 -23 9 -23 3 0 6 -7 6 -15 0 -20 25 -98 35 -110 4 -5 8 -17 8 -27 0 -10
4 -18 9 -18 5 0 11 -10 15 -22 3 -13 16 -39 28 -58 12 -19 22 -37 23 -40 1
-14 67 -93 130 -156 65 -65 151 -134 200 -160 39 -20 70 -39 75 -45 3 -3 47
-22 99 -43 131 -53 278 -94 401 -111 25 -4 65 -10 90 -13 59 -9 2448 -9 2521
0 143 17 319 57 419 95 8 3 20 7 25 8 6 2 42 17 80 35 39 18 73 32 78 32 4 -1
7 2 7 7 0 5 10 13 23 16 12 4 32 17 45 28 12 11 22 16 22 11 0 -5 4 -4 8 2 4
5 25 23 47 39 55 39 207 195 225 231 8 16 18 31 22 34 10 8 63 114 60 123 -1
4 3 7 8 7 5 0 9 3 8 8 -2 7 21 80 31 97 3 6 6 15 8 20 5 24 13 62 17 83 3 12
8 27 11 32 3 6 1 10 -6 10 -8 0 -8 4 1 15 14 17 19 268 7 360 -11 88 -18 130
-24 145 -3 8 -6 18 -5 22 1 4 -8 35 -19 70 -12 35 -21 69 -22 76 0 6 -4 12 -9
12 -4 0 -7 3 -6 7 3 17 -15 63 -25 63 -6 0 -8 3 -4 6 8 8 -77 167 -131 244
-59 83 -58 81 -119 147 l-52 56 1 203 0 202 82 -25 c44 -13 88 -27 96 -30 17
-7 173 -47 225 -57 6 -1 19 -5 30 -9 11 -3 37 -8 57 -11 21 -3 41 -6 45 -7 30
-5 32 3 28 114 -4 108 -12 226 -20 291 -13 110 -17 142 -20 146 -2 3 -6 26
-10 50 -15 108 -85 360 -107 384 -4 6 -8 18 -8 28 0 10 -7 30 -16 43 -9 14
-12 25 -8 25 5 0 5 4 -1 8 -5 4 -26 39 -45 77 -53 108 -140 230 -207 291 -13
12 -23 23 -23 26 0 3 20 27 45 54 24 27 45 52 45 55 0 3 14 24 30 45 53 66
191 329 204 389 2 6 14 48 29 95 14 47 29 97 32 113 3 15 7 38 10 52 3 13 7
60 9 103 6 112 -20 174 -85 207 -51 27 -77 25 -181 -11 -10 -4 -18 -10 -18
-15 0 -5 -4 -9 -10 -9 -13 0 -48 -30 -124 -102 -33 -32 -60 -58 -60 -58 -1 0
-42 -39 -91 -88 -50 -48 -110 -103 -134 -122 -24 -19 -48 -40 -55 -45 -21 -19
-92 -63 -144 -89 l-52 -26 -26 22 c-15 13 -40 35 -56 51 -17 15 -34 27 -39 27
-4 0 -19 10 -33 23 -31 29 -181 114 -255 145 -92 38 -205 74 -281 88 -14 2
-31 7 -38 9 -40 14 -248 19 -832 18 -597 -1 -715 -4 -790 -19 -14 -3 -34 -6
-45 -8 -11 -2 -27 -6 -35 -10 -8 -3 -26 -7 -40 -10 -64 -10 -290 -100 -330
-131 -8 -6 -35 -23 -60 -37 -25 -14 -80 -53 -122 -87 -43 -34 -84 -61 -92 -61
-18 0 -120 58 -124 71 -2 5 -8 9 -13 9 -9 0 -29 15 -74 55 -13 11 -36 31 -51
44 -38 31 -163 151 -159 151 4 0 -29 31 -145 138 -25 23 -50 42 -57 42 -6 0
-13 4 -15 9 -1 5 -10 11 -18 13 -8 2 -21 9 -28 16 -7 6 -23 12 -35 13 -12 0
-29 2 -38 4 -8 1 -31 -3 -50 -9z"/>
</g>
</svg>
